# xmcd
#
# Track frame offsets: 
#        150
#        3681
#        27507
#        38144
#        49947
#        64018
#        80358
#        99617
#        120653
#        138382
#
# Disc length: 2014 seconds
#
# Revision: 0
# Processed by: cddbd v1.5.2PL0 Copyright (c) Steve Scherf et al.
# Submitted via: ExactAudioCopy v0.99pb4
#
DISCID=8407dc0a
DTITLE=Berlinutz - nussfunk ep
DYEAR=2007
DGENRE=Hip-Hop
TTITLE0=berlinutz intro
TTITLE1=nussfunk
TTITLE2=hip hop lebt
TTITLE3=berlin top
TTITLE4=dirty nutz
TTITLE5=kneipentour ft. wetlipz, chlorophil and spot
TTITLE6=fuehlt ihrs
TTITLE7=stadtgeflüster ft. spot and eric attack
TTITLE8=fuehl mich gut
TTITLE9=outro
EXTD=
EXTT0=
EXTT1=
EXTT2=
EXTT3=
EXTT4=
EXTT5=
EXTT6=
EXTT7=
EXTT8=
EXTT9=
PLAYORDER=
